<svg width="32" height="32" viewBox="0 0 32 32" fill="none" xmlns="http://www.w3.org/2000/svg">
<circle cx="16" cy="16" r="15.5" stroke="#8F8F8F"/>
<path d="M10.6457 13.8454C10.6605 13.6699 10.7436 13.5062 10.8787 13.3868C11.0137 13.2674 11.1908 13.2011 11.3745 13.2012H21.538C21.7217 13.2011 21.8988 13.2674 22.0338 13.3868C22.1689 13.5062 22.252 13.6699 22.2667 13.8454L22.9078 21.4922C22.924 21.6849 22.8983 21.8787 22.8324 22.0614C22.7665 22.2442 22.6619 22.4119 22.525 22.5539C22.3882 22.696 22.2221 22.8094 22.0372 22.887C21.8524 22.9646 21.6528 23.0047 21.451 23.0047H11.4615C11.2597 23.0047 11.0601 22.9646 10.8753 22.887C10.6904 22.8094 10.5243 22.696 10.3875 22.5539C10.2506 22.4119 10.146 22.2442 10.0801 22.0614C10.0142 21.8787 9.98854 21.6849 10.0047 21.4922L10.645 13.8454H10.6457Z" stroke="#8F8F8F" stroke-linecap="round" stroke-linejoin="round"/>
<path d="M19.3801 15.3023V11.801C19.3801 11.0581 19.072 10.3457 18.5237 9.8204C17.9754 9.29511 17.2316 9 16.4562 9C15.6807 9 14.937 9.29511 14.3886 9.8204C13.8403 10.3457 13.5322 11.0581 13.5322 11.801V15.3023" stroke="#8F8F8F" stroke-linecap="round" stroke-linejoin="round"/>
</svg>
